<svg width="555" height="555" xmlns="http://www.w3.org/2000/svg" xmlns:svg="http://www.w3.org/2000/svg">
 <title>preloader_01</title>
 <g>
  <title>Layer 1</title>
  <polygon points="536.5,185 518,185 518,148 518,111 499.5,111 481,111 481,92.5 481,74 462.5,74 444,74 444,55.5 444,37 407,37 370,37 370,18.5 370,0 277.5,0 185,0 185,18.5 185,37 148,37 111,37 111,55.5 111,74 92.5,74 74,74 74,92.5 74,111 55.5,111 37,111 37,148 37,185 18.5,185 0,185 0,277.5 0,370 18.5,370 37,370 37,407 37,444 55.5,444 74,444 74,462.5 74,481 92.5,481 111,481 111,499.5 111,518 148,518 185,518 185,536.5 185,555 277.5,555 370,555 370,536.5 370,518 407,518 444,518 444,499.5 444,481 462.5,481 481,481 481,462.5 481,444 499.5,444 518,444 518,407 518,370 536.5,370 555,370 555,277.5 555,185" clip-rule="evenodd" fill="#ffeb3b" fill-rule="evenodd" id="svg_1"/>
  <path d="m518,185l-18.5,0l-18.5,0l0,-37l0,-37l-18.5,0l-18.5,0l0,-18.5l0,-18.5l-37,0l-37,0l0,-18.5l0,-18.5l-92.5,0l-92.5,0l0,18.5l0,18.5l-37,0l-37,0l0,18.5l0,18.5l-18.5,0l-18.5,0l0,37l0,37l-18.5,0l-18.5,0l0,92.5l0,92.5l18.5,0l18.5,0l0,37l0,37l18.5,0l18.5,0l0,18.5l0,18.5l37,0l37,0l0,18.5l0,18.5l92.5,0l92.5,0l0,-18.5l0,-18.5l37,0l37,0l0,-18.5l0,-18.5l18.5,0l18.5,0l0,-37l0,-37l18.5,0l18.5,0l0,-92.5l0,-92.5zm-296,18.5l0,18.5l-37,0l-37,0l0,-18.5l0,-18.5l37,0l37,0l0,18.5zm74,148l0,18.5l-18.5,0l-18.5,0l0,-18.5l0,-18.5l18.5,0l18.5,0l0,18.5zm111,-148l0,18.5l-37,0l-37,0l0,-18.5l0,-18.5l37,0l37,0l0,18.5z" fill="none" id="svg_2"/>
  <polygon points="74,370 55.5,370 37,370 37,407 37,444 55.5,444 74,444 74,407" id="svg_3"/>
  <polygon points="111,444 92.5,444 74,444 74,462.5 74,481 92.5,481 111,481 111,462.5" id="svg_4"/>
  <polygon points="37,185 18.5,185 0,185 0,277.5 0,370 18.5,370 37,370 37,277.5" id="svg_5"/>
  <polygon points="185,481 148,481 111,481 111,499.5 111,518 148,518 185,518 185,499.5" id="svg_6"/>
  <polygon points="536.5,185 518,185 518,277.5 518,370 536.5,370 555,370 555,277.5 555,185" id="svg_7"/>
  <polygon points="185,518 185,536.5 185,555 277.5,555 370,555 370,536.5 370,518 277.5,518" id="svg_8"/>
  <polygon points="481,370 481,407 481,444 499.5,444 518,444 518,407 518,370 499.5,370" id="svg_9"/>
  <polygon points="370,481 370,499.5 370,518 407,518 444,518 444,499.5 444,481 407,481" id="svg_10"/>
  <polygon points="444,444 444,462.5 444,481 462.5,481 481,481 481,462.5 481,444 462.5,444" id="svg_11"/>
  <g id="svg_12">
   <polygon points="74,185 74,148 74,111 55.5,111 37,111 37,148 37,185 55.5,185" id="svg_13"/>
   <polygon points="185,74 185,55.5 185,37 148,37 111,37 111,55.5 111,74 148,74" id="svg_14"/>
   <polygon points="444,111 462.5,111 481,111 481,92.5 481,74 462.5,74 444,74 444,92.5" id="svg_15"/>
   <polygon points="481,185 499.5,185 518,185 518,148 518,111 499.5,111 481,111 481,148" id="svg_16"/>
   <polygon points="370,74 407,74 444,74 444,55.5 444,37 407,37 370,37 370,55.5" id="svg_17"/>
   <polygon points="370,37 370,18.5 370,0 277.5,0 185,0 185,18.5 185,37 277.5,37" id="svg_18"/>
   <polygon points="111,111 111,92.5 111,74 92.5,74 74,74 74,92.5 74,111 92.5,111" id="svg_19"/>
  </g>
  <path id="eoWCmSbvOQw21" d="m370,203.5c-9.2,0 -27.8,0 -37,0c0,11.6 0,25.4 0,37c20.7,0 53.1,0 74,0c0,-11.6 0,-25.4 0,-37l-37,0z"/>
  <g id="eoWCmSbvOQw22" transform="matrix(1,0,0,0.5,0,111) ">
   <path d="m185,185c-9.2,0 -27.8,0 -37,0c0,23.2 0,50.8 0,74c20.7,0 53.1,0 74,0c0,-23.2 0,-50.8 0,-74l-37,0z" id="svg_20"/>
  </g>
  <path d="m370,399.129288c-9.2,0 -27.8,0 -37,0c0,23.2 0,50.8 0,74c20.7,0 53.1,0 74,0c0,-23.2 0,-50.8 0,-74l-37,0z" opacity="0" fill="#2196f3" id="svg_21"/>
  <path id="eoWCmSbvOQw25" d="m185,222c-9.2,0 -27.8,0 -37,0c0,23.2 0,50.8 0,74c20.7,0 53.1,0 74,0c0,-23.2 0,-50.8 0,-74l-37,0z" opacity="0" fill="#2196f3"/>
  <polygon id="eoWCmSbvOQw42" points="259,333 259,351.5 259,370 277.5,370 296,370 296,351.5 296,333 277.5,333"/>
  <path id="eoWCmSbvOQw43" d="m185,249c-9.2,0 -27.8,0 -37,0c0,23.2 0,50.8 0,74c20.7,0 53.1,0 74,0c0,-23.2 0,-50.8 0,-74l-37,0z" fill="#2196f3"/>
  <path id="eoWCmSbvOQw44" d="m185,261c-9.2,0 -27.8,0 -37,0c0,23.2 0,50.8 0,74c20.7,0 53.1,0 74,0c0,-23.2 0,-50.8 0,-74l-37,0z" opacity="0" fill="#2196f3"/>
  <path id="eoWCmSbvOQw45" d="m370,248c-9.2,0 -27.8,0 -37,0c0,23.2 0,50.8 0,74c20.7,0 53.1,0 74,0c0,-23.2 0,-50.8 0,-74l-37,0z" fill="#2196f3"/>
  <path id="eoWCmSbvOQw46" d="m370,250c-9.2,0 -27.8,0 -37,0c0,23.2 0,50.8 0,74c20.7,0 53.1,0 74,0c0,-23.2 0,-50.8 0,-74l-37,0z" opacity="0" fill="#2196f3"/>
 </g>
</svg>